<mxfile host="app.diagrams.net" modified="2023-04-24T12:14:07.833Z" agent="Mozilla/5.0 (Macintosh; Intel Mac OS X 10_15_7) AppleWebKit/537.36 (KHTML, like Gecko) Chrome/112.0.0.0 Safari/537.36" etag="dplQZQgOE_zYDVsXgUKg" version="21.2.1" type="device">
  <diagram name="Seite-1" id="VluZQVBxsGteGHAzVc5c">
    <mxGraphModel dx="1434" dy="923" grid="1" gridSize="10" guides="1" tooltips="1" connect="1" arrows="1" fold="1" page="1" pageScale="1" pageWidth="827" pageHeight="1169" math="0" shadow="0">
      <root>
        <mxCell id="0" />
        <mxCell id="1" parent="0" />
        <mxCell id="tID9EdrAEPy_fOf3kUss-1" value="Binding Layer" style="verticalAlign=top;align=left;spacingTop=8;spacingLeft=2;spacingRight=12;shape=cube;size=10;direction=south;fontStyle=4;html=1;rounded=0;shadow=0;comic=0;labelBackgroundColor=none;strokeWidth=1;fontFamily=Verdana;fontSize=12" vertex="1" parent="1">
          <mxGeometry x="221" y="290" width="500" height="60" as="geometry" />
        </mxCell>
        <mxCell id="tID9EdrAEPy_fOf3kUss-2" value="Data Consumption Layer/Query Definition" style="verticalAlign=top;align=left;spacingTop=8;spacingLeft=2;spacingRight=12;shape=cube;size=10;direction=south;fontStyle=4;html=1;rounded=0;shadow=0;comic=0;labelBackgroundColor=none;strokeWidth=1;fontFamily=Verdana;fontSize=12" vertex="1" parent="1">
          <mxGeometry x="222" y="30" width="500" height="50" as="geometry" />
        </mxCell>
        <mxCell id="tID9EdrAEPy_fOf3kUss-3" value="Transfer&lt;br&gt;Initiation&lt;br&gt;/Validation" style="rounded=0;orthogonalLoop=1;jettySize=auto;html=1;labelBackgroundColor=none;fontColor=#000000;startArrow=classic;startFill=1;endArrow=classic;endFill=1;entryX=0.5;entryY=0;entryDx=0;entryDy=0;" edge="1" parent="1" source="tID9EdrAEPy_fOf3kUss-4" target="tID9EdrAEPy_fOf3kUss-17">
          <mxGeometry x="0.0588" y="-25" relative="1" as="geometry">
            <mxPoint y="1" as="offset" />
          </mxGeometry>
        </mxCell>
        <mxCell id="tID9EdrAEPy_fOf3kUss-4" value="EDC Control Plane&lt;br&gt;+&lt;i&gt;HttpProtocols&lt;/i&gt;" style="html=1;dropTarget=0;fillColor=#d5e8d4;strokeColor=#82b366;" vertex="1" parent="1">
          <mxGeometry x="230" y="130" width="110" height="37.5" as="geometry" />
        </mxCell>
        <mxCell id="tID9EdrAEPy_fOf3kUss-5" style="edgeStyle=none;rounded=0;orthogonalLoop=1;jettySize=auto;html=1;exitX=1;exitY=0.5;exitDx=0;exitDy=0;entryX=0;entryY=0.5;entryDx=0;entryDy=0;fontSize=13;startArrow=none;startFill=0;endArrow=none;endFill=0;" edge="1" parent="1" target="tID9EdrAEPy_fOf3kUss-10">
          <mxGeometry relative="1" as="geometry">
            <mxPoint x="468" y="207.5" as="sourcePoint" />
          </mxGeometry>
        </mxCell>
        <mxCell id="tID9EdrAEPy_fOf3kUss-6" value="Catalogue API" style="edgeStyle=orthogonalEdgeStyle;rounded=0;orthogonalLoop=1;jettySize=auto;html=1;exitX=0.5;exitY=0;exitDx=0;exitDy=0;entryX=0.5;entryY=0;entryDx=0;entryDy=0;" edge="1" parent="1" source="tID9EdrAEPy_fOf3kUss-7" target="tID9EdrAEPy_fOf3kUss-4">
          <mxGeometry x="-0.6797" y="-10" relative="1" as="geometry">
            <mxPoint x="340" y="140" as="targetPoint" />
            <Array as="points">
              <mxPoint x="666" y="110" />
              <mxPoint x="285" y="110" />
            </Array>
            <mxPoint as="offset" />
          </mxGeometry>
        </mxCell>
        <mxCell id="tID9EdrAEPy_fOf3kUss-7" value="&lt;div&gt;Federated&amp;nbsp;&lt;/div&gt;&lt;div&gt;&lt;span style=&quot;background-color: initial;&quot;&gt;Catalogue&lt;/span&gt;&lt;/div&gt;" style="html=1;dropTarget=0;fillColor=#d5e8d4;strokeColor=#82b366;" vertex="1" parent="1">
          <mxGeometry x="611" y="152.5" width="110" height="72.5" as="geometry" />
        </mxCell>
        <mxCell id="tID9EdrAEPy_fOf3kUss-8" value="Core Services" style="verticalAlign=top;align=left;spacingTop=8;spacingLeft=2;spacingRight=12;shape=cube;size=10;direction=south;fontStyle=4;html=1;rounded=0;shadow=0;comic=0;labelBackgroundColor=none;strokeWidth=1;fontFamily=Verdana;fontSize=12" vertex="1" parent="1">
          <mxGeometry x="780" y="110" width="150" height="170" as="geometry" />
        </mxCell>
        <mxCell id="tID9EdrAEPy_fOf3kUss-9" value="RDF &lt;br&gt;Storage &lt;br&gt;(e.g.&lt;br&gt;SAIL)" style="edgeStyle=none;rounded=0;orthogonalLoop=1;jettySize=auto;html=1;entryX=0;entryY=0.669;entryDx=0;entryDy=0;fontSize=13;startArrow=none;startFill=0;endArrow=classic;endFill=1;entryPerimeter=0;exitX=1;exitY=0.638;exitDx=0;exitDy=0;exitPerimeter=0;fontColor=#000000;labelBackgroundColor=none;" edge="1" parent="1" source="tID9EdrAEPy_fOf3kUss-10" target="tID9EdrAEPy_fOf3kUss-7">
          <mxGeometry x="0.0682" y="1" relative="1" as="geometry">
            <mxPoint x="530" y="196" as="sourcePoint" />
            <mxPoint as="offset" />
          </mxGeometry>
        </mxCell>
        <mxCell id="tID9EdrAEPy_fOf3kUss-10" value="Matchmaking &lt;br&gt;Agent" style="html=1;dropTarget=0;fillColor=#d5e8d4;strokeColor=#82b366;" vertex="1" parent="1">
          <mxGeometry x="413" y="159.75" width="110" height="65" as="geometry" />
        </mxCell>
        <mxCell id="tID9EdrAEPy_fOf3kUss-11" value="" style="endArrow=classic;html=1;rounded=0;exitX=1;exitY=0.5;exitDx=0;exitDy=0;startArrow=none;startFill=0;endFill=1;" edge="1" parent="1" source="tID9EdrAEPy_fOf3kUss-7">
          <mxGeometry width="50" height="50" relative="1" as="geometry">
            <mxPoint x="740" y="110" as="sourcePoint" />
            <mxPoint x="780" y="189" as="targetPoint" />
          </mxGeometry>
        </mxCell>
        <mxCell id="tID9EdrAEPy_fOf3kUss-12" value="Download&lt;br&gt;On&lt;br&gt;Setup" style="edgeLabel;html=1;align=center;verticalAlign=middle;resizable=0;points=[];fontColor=#000000;labelBackgroundColor=none;" vertex="1" connectable="0" parent="tID9EdrAEPy_fOf3kUss-11">
          <mxGeometry x="0.3509" y="2" relative="1" as="geometry">
            <mxPoint x="-4" y="1" as="offset" />
          </mxGeometry>
        </mxCell>
        <mxCell id="tID9EdrAEPy_fOf3kUss-13" value="KA-SPARQL 1.1" style="endArrow=none;html=1;rounded=0;entryX=0;entryY=0;entryDx=50;entryDy=255;entryPerimeter=0;exitX=0.5;exitY=0;exitDx=0;exitDy=0;startArrow=classic;startFill=1;" edge="1" parent="1" source="tID9EdrAEPy_fOf3kUss-10" target="tID9EdrAEPy_fOf3kUss-2">
          <mxGeometry x="-0.518" y="-42" width="50" height="50" relative="1" as="geometry">
            <mxPoint x="520" y="470" as="sourcePoint" />
            <mxPoint x="570" y="420" as="targetPoint" />
            <mxPoint as="offset" />
          </mxGeometry>
        </mxCell>
        <mxCell id="tID9EdrAEPy_fOf3kUss-14" value="Restricted SPARQL" style="endArrow=none;html=1;rounded=0;entryX=0.5;entryY=1;entryDx=0;entryDy=0;startArrow=classic;startFill=1;exitX=-0.033;exitY=0.506;exitDx=0;exitDy=0;exitPerimeter=0;" edge="1" parent="1" source="tID9EdrAEPy_fOf3kUss-1" target="tID9EdrAEPy_fOf3kUss-10">
          <mxGeometry x="-0.3509" y="-52" width="50" height="50" relative="1" as="geometry">
            <mxPoint x="470" y="270" as="sourcePoint" />
            <mxPoint x="220" y="220" as="targetPoint" />
            <mxPoint as="offset" />
          </mxGeometry>
        </mxCell>
        <mxCell id="tID9EdrAEPy_fOf3kUss-15" value="Dataspace Layer" style="text;strokeColor=none;fillColor=none;html=1;fontSize=24;fontStyle=1;verticalAlign=middle;align=center;" vertex="1" parent="1">
          <mxGeometry x="60" y="159.75" width="100" height="40" as="geometry" />
        </mxCell>
        <mxCell id="tID9EdrAEPy_fOf3kUss-16" value="" style="edgeStyle=none;rounded=0;orthogonalLoop=1;jettySize=auto;html=1;labelBackgroundColor=none;fontColor=#000000;startArrow=none;startFill=0;endArrow=none;endFill=0;" edge="1" parent="1" source="tID9EdrAEPy_fOf3kUss-17" target="tID9EdrAEPy_fOf3kUss-4">
          <mxGeometry relative="1" as="geometry" />
        </mxCell>
        <mxCell id="tID9EdrAEPy_fOf3kUss-27" style="edgeStyle=orthogonalEdgeStyle;rounded=0;orthogonalLoop=1;jettySize=auto;html=1;" edge="1" parent="1" source="tID9EdrAEPy_fOf3kUss-17">
          <mxGeometry relative="1" as="geometry">
            <mxPoint x="380" y="240" as="targetPoint" />
          </mxGeometry>
        </mxCell>
        <mxCell id="tID9EdrAEPy_fOf3kUss-17" value="EDC Data Plane(s)&lt;br&gt;&lt;i&gt;&lt;font style=&quot;font-size: 8px;&quot;&gt;+urn:cx:Protocol:w3c:Http&lt;br&gt;#SPARQL&lt;/font&gt;&lt;/i&gt;" style="html=1;dropTarget=0;fillColor=#d5e8d4;strokeColor=#82b366;" vertex="1" parent="1">
          <mxGeometry x="230" y="210" width="110" height="40" as="geometry" />
        </mxCell>
        <mxCell id="tID9EdrAEPy_fOf3kUss-18" value="&lt;div&gt;Semantic Model&lt;/div&gt;" style="html=1;dropTarget=0;fillColor=#d5e8d4;strokeColor=#82b366;" vertex="1" parent="1">
          <mxGeometry x="800" y="144.5" width="110" height="35.5" as="geometry" />
        </mxCell>
        <mxCell id="tID9EdrAEPy_fOf3kUss-19" value="&lt;div&gt;GPDM&lt;/div&gt;" style="html=1;dropTarget=0;" vertex="1" parent="1">
          <mxGeometry x="800" y="189.25" width="110" height="35.5" as="geometry" />
        </mxCell>
        <mxCell id="tID9EdrAEPy_fOf3kUss-20" value="&lt;div&gt;Self-Description Hub&lt;/div&gt;" style="html=1;dropTarget=0;" vertex="1" parent="1">
          <mxGeometry x="800" y="232.5" width="110" height="35.5" as="geometry" />
        </mxCell>
        <mxCell id="tID9EdrAEPy_fOf3kUss-21" value="Endpoint Callback" style="endArrow=classic;html=1;rounded=0;labelBackgroundColor=none;fontColor=#000000;exitX=1;exitY=0.25;exitDx=0;exitDy=0;entryX=0.145;entryY=-0.027;entryDx=0;entryDy=0;entryPerimeter=0;" edge="1" parent="1" source="tID9EdrAEPy_fOf3kUss-4" target="tID9EdrAEPy_fOf3kUss-10">
          <mxGeometry x="-0.0275" y="13" width="50" height="50" relative="1" as="geometry">
            <mxPoint x="500" y="480" as="sourcePoint" />
            <mxPoint x="550" y="430" as="targetPoint" />
            <Array as="points">
              <mxPoint x="430" y="140" />
            </Array>
            <mxPoint y="-1" as="offset" />
          </mxGeometry>
        </mxCell>
        <mxCell id="tID9EdrAEPy_fOf3kUss-22" value="Asset Mgmt" style="endArrow=classic;html=1;rounded=0;labelBackgroundColor=none;fontColor=#000000;entryX=1;entryY=0.75;entryDx=0;entryDy=0;" edge="1" parent="1" target="tID9EdrAEPy_fOf3kUss-4">
          <mxGeometry x="-0.0989" y="-10" width="50" height="50" relative="1" as="geometry">
            <mxPoint x="410" y="170" as="sourcePoint" />
            <mxPoint x="340" y="170" as="targetPoint" />
            <mxPoint as="offset" />
            <Array as="points">
              <mxPoint x="390" y="160" />
            </Array>
          </mxGeometry>
        </mxCell>
        <mxCell id="tID9EdrAEPy_fOf3kUss-23" value="" style="endArrow=classic;html=1;rounded=0;labelBackgroundColor=none;fontColor=#000000;entryX=1;entryY=0.25;entryDx=0;entryDy=0;" edge="1" parent="1" target="tID9EdrAEPy_fOf3kUss-17">
          <mxGeometry width="50" height="50" relative="1" as="geometry">
            <mxPoint x="410" y="219" as="sourcePoint" />
            <mxPoint x="550" y="430" as="targetPoint" />
          </mxGeometry>
        </mxCell>
        <mxCell id="tID9EdrAEPy_fOf3kUss-24" value="Invoke (Sink)" style="edgeLabel;html=1;align=center;verticalAlign=middle;resizable=0;points=[];fontColor=#000000;" vertex="1" connectable="0" parent="tID9EdrAEPy_fOf3kUss-23">
          <mxGeometry x="0.3217" y="2" relative="1" as="geometry">
            <mxPoint x="16" y="-14" as="offset" />
          </mxGeometry>
        </mxCell>
        <mxCell id="tID9EdrAEPy_fOf3kUss-25" value="(Source) &lt;br&gt;Delegate" style="endArrow=classic;html=1;rounded=0;labelBackgroundColor=none;fontColor=#000000;exitX=1;exitY=0.75;exitDx=0;exitDy=0;" edge="1" parent="1" source="tID9EdrAEPy_fOf3kUss-17">
          <mxGeometry x="-0.0307" y="-30" width="50" height="50" relative="1" as="geometry">
            <mxPoint x="500" y="480" as="sourcePoint" />
            <mxPoint x="440" y="228" as="targetPoint" />
            <Array as="points">
              <mxPoint x="440" y="240" />
            </Array>
            <mxPoint as="offset" />
          </mxGeometry>
        </mxCell>
        <mxCell id="tID9EdrAEPy_fOf3kUss-26" value="Transfer Negotiation" style="endArrow=classic;html=1;rounded=0;labelBackgroundColor=none;fontColor=#000000;exitX=0;exitY=0.5;exitDx=0;exitDy=0;entryX=0.75;entryY=1;entryDx=0;entryDy=0;" edge="1" parent="1" source="tID9EdrAEPy_fOf3kUss-10" target="tID9EdrAEPy_fOf3kUss-4">
          <mxGeometry x="-0.1306" y="-11" width="50" height="50" relative="1" as="geometry">
            <mxPoint x="500" y="470" as="sourcePoint" />
            <mxPoint x="550" y="420" as="targetPoint" />
            <Array as="points">
              <mxPoint x="313" y="190" />
            </Array>
            <mxPoint as="offset" />
          </mxGeometry>
        </mxCell>
      </root>
    </mxGraphModel>
  </diagram>
</mxfile>
